<?xml version="1.0" encoding="utf-8"?>
<!-- Generator: Adobe Illustrator 22.0.1, SVG Export Plug-In . SVG Version: 6.00 Build 0)  -->
<svg version="1.1" id="Layer_1" xmlns="http://www.w3.org/2000/svg" xmlns:xlink="http://www.w3.org/1999/xlink" x="0px" y="0px"
	 viewBox="0 0 28.3 28.1" style="enable-background:new 0 0 28.3 28.1;" xml:space="preserve">
<path d="M26.4,0.7l1.4,1.4l-15,15l-1.4-1.4L26.4,0.7z"/>
<path d="M28.1,10.4h-2v-8h-8v-2h10V10.4z"/>
<path d="M23.1,28.4h-20c-1.7,0-3-1.3-3-3v-20c0-1.7,1.3-3,3-3h11v2h-11c-0.6,0-1,0.4-1,1v20c0,0.6,0.4,1,1,1h20c0.6,0,1-0.4,1-1v-11
	h2v11C26.1,27.1,24.8,28.4,23.1,28.4z"/>
</svg>
