<?xml version="1.0" standalone="no"?>
<!DOCTYPE svg PUBLIC "-//W3C//DTD SVG 20010904//EN"
 "http://www.w3.org/TR/2001/REC-SVG-20010904/DTD/svg10.dtd">
<svg version="1.0" xmlns="http://www.w3.org/2000/svg"
 width="1200.000000pt" height="1200.000000pt" viewBox="0 0 1200.000000 1200.000000"
 preserveAspectRatio="xMidYMid meet">
<metadata>
Created by potrace 1.11, written by Peter Selinger 2001-2013
</metadata>
<g transform="translate(0.000000,1200.000000) scale(0.100000,-0.100000)"
fill="#000000" stroke="none">
<path d="M6130 11730 c-8 -5 -17 -7 -21 -4 -4 2 -10 0 -14 -6 -3 -5 -12 -10
-18 -10 -7 0 -6 4 3 10 13 8 13 10 -2 10 -9 0 -20 -5 -24 -11 -3 -6 -24 -9
-45 -7 -22 2 -39 0 -39 -5 0 -4 -18 -6 -40 -3 -24 3 -38 1 -35 -5 6 -8 -7 -11
-62 -12 -13 -1 -23 -5 -23 -10 0 -5 -8 -3 -17 4 -10 9 -14 9 -10 2 5 -8 -5
-14 -30 -18 -21 -4 -52 -11 -69 -16 -17 -5 -41 -11 -53 -14 -11 -2 -26 -7 -33
-11 -6 -4 -8 -3 -5 3 3 5 0 10 -8 10 -8 0 -12 -4 -9 -8 6 -10 -6 -16 -41 -20
-16 -2 -33 -8 -36 -12 -3 -5 -20 -9 -37 -9 -17 -1 -29 -5 -26 -10 5 -7 -13
-12 -43 -11 -7 1 -13 -3 -13 -9 0 -5 -4 -6 -10 -3 -5 3 -10 2 -10 -3 0 -5 -6
-9 -12 -10 -38 -3 -54 -8 -66 -20 -8 -7 -18 -10 -23 -7 -5 4 -9 1 -9 -5 0 -6
-4 -9 -9 -6 -5 4 -11 1 -13 -4 -2 -6 -10 -12 -18 -13 -8 -2 -21 -7 -29 -11
-10 -7 -12 -5 -7 5 4 8 1 6 -7 -4 -9 -11 -21 -15 -32 -10 -12 4 -16 3 -12 -4
8 -13 -20 -26 -35 -16 -6 3 -8 1 -4 -5 3 -6 -8 -15 -29 -22 -19 -6 -35 -15
-35 -20 0 -4 -11 -7 -24 -6 -17 2 -23 -1 -19 -10 5 -12 -14 -19 -39 -15 -5 0
-8 -4 -8 -9 0 -6 -5 -10 -11 -10 -6 0 -17 -7 -26 -15 -8 -8 -19 -13 -24 -10
-5 4 -9 -1 -9 -9 0 -10 -7 -13 -20 -11 -11 2 -18 1 -16 -4 7 -10 -26 -28 -46
-25 -11 1 -15 -3 -11 -12 3 -8 -1 -14 -11 -14 -9 0 -16 -4 -16 -10 0 -5 -8
-10 -17 -10 -10 0 -31 -14 -47 -30 -21 -21 -36 -29 -50 -24 -15 4 -17 3 -7 -4
17 -12 -3 -27 -21 -16 -7 4 -10 4 -6 -1 11 -12 -43 -54 -60 -47 -9 3 -13 1 -9
-5 5 -8 -73 -83 -87 -83 -2 0 -21 -16 -42 -35 -20 -19 -41 -32 -45 -29 -5 3
-8 1 -7 -4 4 -11 -144 -158 -154 -154 -5 1 -8 -3 -8 -8 0 -6 -15 -26 -34 -45
-19 -18 -31 -36 -28 -39 3 -3 -2 -6 -10 -6 -9 0 -19 -7 -22 -16 -3 -8 -10 -13
-15 -10 -5 3 -8 -1 -7 -9 0 -7 -3 -14 -9 -14 -5 0 -13 -10 -18 -23 -7 -19 -10
-20 -18 -8 -8 12 -9 11 -5 -5 6 -24 -48 -90 -66 -79 -7 4 -8 3 -4 -4 4 -7 2
-20 -3 -29 -6 -10 -11 -13 -12 -8 0 6 -4 -1 -8 -15 -4 -14 -13 -24 -20 -22 -7
1 -10 -2 -7 -7 4 -5 -1 -16 -9 -24 -8 -9 -15 -20 -15 -25 0 -5 -11 -21 -25
-36 -14 -15 -25 -33 -25 -40 0 -7 -11 -23 -25 -36 -13 -12 -22 -26 -20 -30 3
-4 -2 -13 -10 -20 -8 -7 -15 -19 -15 -26 0 -8 -3 -14 -8 -14 -9 0 -37 -62 -34
-74 2 -5 -4 -6 -12 -3 -9 4 -18 1 -22 -5 -5 -7 -2 -8 6 -3 10 6 11 4 6 -11 -5
-10 -11 -27 -13 -36 -3 -10 -9 -18 -14 -18 -5 0 -9 -7 -9 -15 0 -8 -5 -15 -11
-15 -5 0 -8 -4 -4 -9 3 -5 0 -15 -7 -23 -7 -7 -15 -22 -16 -33 -2 -11 -9 -23
-15 -27 -7 -4 -12 -13 -13 -20 0 -7 -2 -23 -2 -35 -1 -15 -7 -21 -16 -17 -11
4 -13 0 -9 -16 3 -12 -2 -29 -13 -42 -11 -12 -13 -18 -6 -14 11 7 11 4 0 -15
-7 -13 -17 -27 -21 -30 -5 -3 -8 -9 -8 -13 4 -25 0 -46 -8 -42 -14 9 -21 -20
-8 -33 8 -8 7 -11 -3 -11 -7 0 -11 -3 -8 -6 4 -3 0 -21 -8 -40 -8 -19 -14 -36
-14 -39 1 -15 -13 -55 -20 -55 -4 0 -5 -11 -2 -25 2 -14 -3 -36 -12 -50 -12
-17 -13 -25 -4 -25 9 0 9 -3 0 -12 -7 -7 -12 -22 -12 -35 0 -13 -3 -23 -7 -23
-5 0 -9 -26 -10 -57 -1 -32 -6 -59 -12 -61 -5 -2 -7 -10 -4 -19 5 -12 3 -14
-8 -8 -11 6 -12 5 -1 -6 13 -14 17 -33 5 -26 -5 3 -8 -20 -7 -51 0 -69 -5 -94
-18 -86 -6 4 -5 -3 1 -15 10 -18 9 -21 -6 -22 -16 0 -16 -1 2 -9 13 -6 15 -9
5 -9 -13 -1 -13 -2 0 -11 8 -5 11 -10 5 -10 -6 0 -10 -68 -10 -185 0 -104 4
-185 9 -185 5 0 1 -10 -10 -22 -10 -12 -14 -18 -7 -15 6 4 14 3 18 -3 3 -5 0
-10 -7 -10 -9 0 -9 -3 2 -10 8 -5 10 -10 4 -10 -6 0 -11 -7 -11 -15 0 -8 4
-12 9 -9 4 3 8 -1 9 -8 0 -7 2 -44 5 -83 2 -38 6 -81 9 -93 4 -18 2 -22 -7
-16 -7 4 -5 -2 5 -13 13 -15 19 -40 21 -80 1 -32 7 -68 14 -79 6 -12 9 -24 6
-27 -3 -3 0 -15 6 -27 7 -12 8 -20 3 -17 -5 3 -9 -3 -9 -13 0 -10 4 -16 8 -14
4 3 9 -2 9 -10 2 -19 5 -35 9 -38 3 -3 7 -29 12 -65 1 -13 6 -23 11 -23 4 0 7
-8 5 -17 -1 -10 1 -24 6 -32 7 -10 5 -12 -5 -7 -8 5 -8 2 2 -6 9 -7 15 -23 14
-35 -1 -13 2 -23 7 -23 5 0 7 -4 4 -9 -3 -5 0 -14 7 -20 8 -6 13 -21 12 -33
-1 -13 2 -26 8 -29 5 -4 10 -20 10 -37 1 -17 4 -29 6 -26 10 10 28 -51 18 -63
-6 -9 -4 -15 6 -19 9 -3 20 -19 26 -35 8 -23 7 -28 -2 -24 -7 4 -4 0 7 -9 10
-8 15 -19 11 -25 -3 -6 -1 -11 6 -11 7 0 10 -3 6 -6 -3 -4 1 -13 9 -21 8 -9
12 -23 9 -31 -3 -9 -3 -13 1 -9 4 4 13 -5 21 -19 15 -30 17 -46 3 -24 -7 10
-10 11 -10 2 0 -7 9 -20 20 -29 16 -14 17 -20 7 -32 -9 -11 -9 -13 0 -8 18 11
39 -33 22 -45 -11 -8 -11 -9 1 -5 17 4 73 -86 72 -115 0 -10 5 -17 11 -15 7 1
11 -4 10 -10 -2 -7 2 -13 8 -13 6 0 8 -7 5 -16 -3 -8 -2 -13 3 -10 5 3 12 -1
15 -10 3 -8 9 -13 14 -10 7 4 7 35 -2 109 -3 21 -1 37 5 37 6 0 3 7 -6 16 -13
14 -14 19 -3 25 11 7 10 11 -1 18 -19 12 -22 482 -3 489 7 2 12 8 12 13 0 6
-4 7 -10 4 -5 -3 -10 -1 -10 4 0 6 4 11 9 11 6 0 8 10 6 22 -3 12 1 26 8 30 8
5 8 8 1 8 -7 0 -10 17 -7 48 3 26 5 63 6 83 1 27 5 35 15 31 12 -4 12 -1 3 16
-6 11 -8 23 -3 26 4 2 7 23 6 46 0 28 4 44 13 47 12 5 12 7 1 14 -7 5 -8 9 -3
9 6 0 11 20 10 45 0 27 5 47 12 49 7 3 10 13 6 22 -5 13 -3 15 8 9 11 -7 12
-6 2 7 -7 8 -10 17 -7 21 5 5 12 37 16 75 1 6 5 12 9 12 4 0 6 9 4 20 -2 11 1
23 7 26 7 5 8 2 3 -7 -5 -8 -4 -10 0 -6 14 12 15 38 2 31 -8 -5 -7 -2 1 7 6 7
12 21 12 31 0 10 7 18 15 18 8 0 15 5 15 11 0 5 -4 7 -10 4 -5 -3 -10 -1 -10
4 0 6 6 11 13 11 9 0 8 3 -2 9 -10 7 -8 12 10 25 15 10 18 16 9 16 -9 0 -11 3
-5 8 6 4 12 16 13 27 2 11 9 26 15 34 10 12 9 13 -3 7 -9 -4 -8 -2 2 7 10 8
15 17 11 20 -3 4 -1 13 5 20 7 8 9 17 5 20 -3 4 -1 7 5 7 7 0 11 3 11 8 -3 20
2 32 12 27 6 -4 9 -1 8 6 -4 22 12 49 25 42 8 -4 8 -2 -1 7 -14 15 -6 40 12
40 7 0 12 10 11 23 -1 13 4 21 12 20 7 -2 12 7 12 20 0 27 33 70 45 59 5 -4 5
-1 1 5 -8 15 17 56 28 46 4 -4 4 0 1 8 -3 9 5 27 19 42 13 14 27 36 31 47 3
11 11 20 16 20 6 0 8 3 6 8 -5 10 40 51 49 43 4 -3 4 -1 0 6 -3 6 5 23 19 37
14 14 25 30 25 36 0 5 7 10 16 10 8 0 13 4 10 8 -6 10 30 43 38 35 6 -6 10 12
7 30 0 4 5 7 12 7 7 0 19 9 27 20 8 11 20 20 28 20 7 0 11 4 7 9 -3 5 8 18 24
27 17 10 28 21 25 26 -3 4 0 8 5 8 25 0 52 20 44 32 -2 4 4 5 13 1 12 -4 15
-3 10 5 -4 7 -3 12 2 12 5 0 19 9 32 20 12 11 27 17 33 13 6 -4 7 -1 2 7 -6
10 -4 12 9 7 9 -4 15 -3 12 1 -3 5 4 16 16 26 17 15 22 16 29 5 7 -11 9 -10 9
3 0 19 37 44 59 39 7 -1 10 2 6 8 -5 10 7 15 28 12 4 0 7 3 7 8 0 9 33 24 53
26 4 0 12 7 17 15 5 8 10 11 10 7 0 -5 7 -1 16 8 9 9 23 14 30 11 8 -3 13 0
11 6 -1 7 12 15 28 19 17 4 26 7 20 8 -5 1 3 8 19 16 32 17 39 19 32 7 -3 -5
1 -9 9 -9 8 0 12 4 9 8 -6 11 28 28 44 22 6 -3 12 2 12 11 0 9 7 13 19 11 11
-2 22 2 24 9 3 8 16 13 29 12 13 -1 30 3 38 10 8 7 22 14 30 16 8 2 18 7 21
11 3 4 16 9 27 10 12 1 22 5 22 10 0 4 4 5 10 2 5 -3 21 2 35 11 14 9 25 14
25 11 0 -3 16 1 35 9 19 8 35 11 35 8 0 -4 6 -1 14 5 11 9 15 9 19 -1 4 -10 7
-10 18 1 12 12 12 13 0 6 -9 -5 -12 -4 -8 2 4 6 23 10 42 10 20 -1 39 4 43 10
4 6 25 12 47 14 22 1 46 7 52 12 7 5 35 10 63 11 27 0 50 4 50 8 0 8 21 5 37
-5 7 -4 16 0 21 9 7 13 22 15 70 12 34 -1 62 -1 62 2 0 3 58 5 130 5 71 0 130
-4 130 -9 0 -5 6 -3 13 3 8 6 16 9 19 6 2 -3 27 -6 54 -7 31 -1 54 -7 62 -17
12 -14 13 -14 8 3 -5 16 -4 17 8 7 8 -7 20 -10 26 -6 5 3 10 3 10 -2 0 -4 23
-9 51 -9 28 -1 54 -6 58 -10 3 -5 17 -10 31 -10 14 -1 35 -2 47 -3 17 -1 21
-6 17 -18 -5 -14 -4 -15 4 -4 7 10 14 10 29 2 11 -5 23 -8 26 -5 8 8 48 -6 43
-14 -2 -4 8 -8 22 -8 62 -2 73 -4 67 -13 -3 -5 8 -9 24 -9 17 1 38 -5 46 -12
9 -8 28 -14 41 -15 14 0 28 -5 32 -10 4 -6 13 -10 20 -11 30 -2 34 -5 28 -20
-4 -10 -2 -13 7 -7 17 10 37 13 37 4 0 -4 10 -7 22 -8 11 -1 24 -7 28 -14 4
-6 12 -9 17 -6 6 4 19 0 29 -8 10 -8 27 -15 37 -15 9 0 17 -4 17 -10 0 -5 9
-10 20 -10 11 0 20 -4 20 -9 0 -5 7 -12 16 -15 9 -3 12 -2 8 5 -3 6 3 5 15 -3
12 -7 21 -19 21 -27 0 -11 3 -11 15 -1 10 9 15 9 15 1 0 -6 7 -11 16 -11 9 0
12 -5 8 -12 -4 -6 -3 -8 4 -4 6 3 16 1 24 -6 7 -7 22 -15 33 -16 11 -2 22 -8
23 -13 2 -5 12 -9 23 -9 10 0 19 -4 19 -10 0 -5 7 -10 15 -10 8 0 24 -9 35
-20 11 -11 23 -21 28 -22 4 -2 6 -7 4 -12 -2 -5 3 -4 11 2 11 10 17 9 26 -1 6
-8 7 -17 3 -21 -4 -4 -2 -7 3 -6 28 6 56 -1 49 -12 -5 -8 -2 -9 9 -5 10 3 17
2 17 -3 0 -6 7 -10 15 -10 8 0 22 -12 30 -27 9 -16 14 -21 11 -12 -4 15 -2 15
25 2 16 -8 29 -17 29 -19 0 -3 -6 -2 -12 2 -8 4 -10 3 -5 -2 9 -9 13 -10 43
-13 8 0 12 -5 9 -11 -3 -5 0 -10 8 -10 8 0 17 -7 21 -15 3 -8 12 -12 21 -9 8
4 17 -1 21 -10 3 -9 9 -14 14 -11 4 2 16 -4 27 -15 12 -10 24 -16 27 -13 3 4
6 -2 6 -13 0 -16 2 -17 10 -4 6 10 10 11 10 2 0 -6 6 -11 13 -10 6 2 11 -3 9
-11 -2 -8 3 -11 13 -8 11 5 15 0 15 -16 0 -15 3 -18 8 -9 7 9 14 8 32 -8 13
-11 27 -20 32 -20 5 0 6 -5 2 -12 -4 -6 -3 -8 3 -5 13 8 76 -31 68 -42 -3 -6
7 -11 22 -13 16 -2 27 -8 26 -15 -2 -7 4 -10 12 -7 9 4 15 0 15 -10 0 -9 6
-13 14 -10 8 3 21 -5 30 -18 9 -12 16 -19 16 -15 0 5 14 0 30 -10 17 -9 30
-21 30 -25 0 -4 6 -8 14 -8 8 0 16 -5 18 -11 2 -5 12 -11 23 -13 21 -3 45 37
45 76 0 10 4 16 10 13 6 -4 7 1 3 11 -4 10 0 20 11 26 13 8 15 13 5 24 -8 10
-8 14 -1 14 6 0 9 6 6 14 -3 7 2 20 10 29 11 11 12 17 4 19 -7 3 -8 9 -3 19 5
8 11 20 12 27 7 32 12 47 13 47 2 0 4 14 11 93 2 18 9 38 16 44 9 7 10 15 2
29 -5 10 -6 19 -2 19 4 0 9 41 10 92 1 50 7 96 12 101 5 5 7 25 4 45 -5 28 -3
34 8 27 12 -8 12 -6 0 8 -7 9 -11 24 -7 32 3 8 0 15 -7 16 -7 0 -3 4 8 9 17 7
17 9 3 9 -21 1 -23 12 -6 29 7 7 8 12 2 12 -11 0 -11 -1 -18 122 -2 48 -7 92
-11 98 -8 13 -15 50 -18 99 -1 21 -5 37 -9 34 -7 -4 -10 8 -12 55 -1 9 -5 20
-11 24 -5 4 -10 18 -10 32 -1 14 -9 33 -18 44 -10 11 -17 23 -15 28 1 5 -4 19
-11 32 -7 13 -10 30 -7 38 3 8 2 13 -2 10 -9 -5 -45 68 -45 91 0 6 -5 11 -11
10 -6 -1 -11 5 -11 13 0 8 -8 23 -18 33 -10 10 -15 23 -11 29 4 7 3 8 -4 4
-11 -7 -17 6 -13 27 1 5 -3 6 -9 2 -9 -6 -14 8 -11 28 1 5 -3 6 -8 2 -12 -7
-34 32 -26 45 4 6 1 9 -6 8 -7 -2 -13 4 -14 12 0 8 -5 15 -11 15 -15 0 -44 31
-37 39 4 3 0 6 -8 7 -8 1 -44 34 -81 74 -38 41 -68 72 -68 69 0 -3 -22 18 -49
45 -27 27 -52 47 -57 43 -4 -4 -4 1 -1 10 4 12 2 15 -9 11 -7 -3 -14 0 -14 7
0 6 -4 9 -8 6 -5 -3 -15 4 -22 15 -8 10 -20 19 -28 19 -7 0 -10 5 -7 10 3 6 1
10 -5 10 -6 0 -8 5 -4 13 5 8 2 8 -9 -2 -9 -7 -17 -9 -17 -4 0 5 -11 16 -25
23 -13 7 -22 17 -19 21 3 5 -1 6 -9 3 -8 -3 -20 2 -27 11 -7 8 -19 15 -27 15
-8 0 -11 5 -8 10 3 6 -1 10 -9 10 -8 0 -22 7 -30 16 -9 9 -23 17 -31 18 -8 1
-27 13 -42 26 -16 14 -34 23 -40 22 -7 -2 -13 1 -13 6 0 5 -14 12 -31 16 -17
3 -28 10 -24 15 3 5 0 13 -6 17 -8 5 -9 3 -4 -6 5 -9 3 -11 -6 -6 -8 3 -22 9
-31 12 -10 4 -18 11 -18 16 0 5 -4 7 -9 4 -5 -3 -14 1 -21 9 -7 8 -23 15 -35
15 -12 0 -28 7 -35 15 -7 8 -16 12 -21 9 -12 -7 -51 21 -42 30 4 4 -1 4 -10 0
-12 -4 -23 0 -33 12 -9 11 -12 13 -8 5 6 -11 3 -13 -12 -7 -10 5 -27 11 -36
13 -10 3 -18 9 -18 14 0 5 -3 8 -7 8 -24 -4 -63 2 -59 9 2 4 -5 9 -17 9 -45 4
-68 13 -60 26 4 7 -2 5 -12 -3 -14 -11 -17 -11 -11 -1 6 10 4 12 -10 7 -11 -3
-30 0 -44 7 -14 7 -43 14 -65 15 -22 2 -44 8 -50 14 -7 8 -6 9 4 3 10 -6 12
-4 7 4 -6 9 -11 9 -22 0 -8 -6 -14 -7 -14 -2 0 6 -11 9 -25 8 -36 -4 -66 5
-58 19 4 6 -1 5 -10 -3 -9 -7 -17 -10 -17 -5 0 5 -30 10 -66 11 -37 2 -74 9
-82 15 -13 11 -14 11 -7 -2 8 -13 7 -13 -8 -1 -10 8 -20 11 -23 8 -3 -3 -17
-2 -31 4 -16 6 -22 6 -18 -1 7 -11 -23 -9 -42 3 -8 5 -13 3 -13 -3 0 -6 -5 -8
-11 -5 -12 8 -340 8 -347 0 -3 -3 -10 -1 -16 5 -7 5 -18 5 -26 0z"/>
<path d="M8610 10480 c0 -5 5 -10 11 -10 5 0 7 5 4 10 -3 6 -8 10 -11 10 -2 0
-4 -4 -4 -10z"/>
<path d="M6027 9614 c5 -14 3 -15 -15 -5 -15 8 -21 8 -24 -1 -3 -7 -30 -12
-70 -12 -36 -1 -64 -4 -61 -8 2 -5 1 -8 -4 -9 -4 0 -17 -3 -28 -5 -11 -3 -32
-6 -47 -6 -16 -1 -28 -5 -28 -10 0 -4 -10 -8 -23 -8 -13 0 -28 -5 -35 -12 -7
-7 -12 -9 -12 -6 0 4 -12 0 -27 -7 -21 -11 -29 -12 -35 -2 -5 7 -8 8 -8 1 0
-16 -47 -35 -67 -27 -11 4 -14 3 -9 -5 7 -11 -7 -16 -41 -15 -7 1 -11 -3 -8
-7 7 -12 -7 -19 -43 -22 -17 -1 -29 -5 -27 -9 4 -6 -138 -82 -149 -80 -4 1
-15 -8 -26 -19 -11 -11 -27 -20 -35 -20 -8 0 -15 -5 -15 -11 0 -6 -7 -9 -15
-5 -8 3 -14 1 -12 -3 1 -5 -22 -25 -51 -44 -29 -20 -50 -31 -47 -24 4 7 -1 3
-10 -8 -9 -11 -20 -19 -25 -18 -5 2 -12 -6 -15 -17 -4 -11 -12 -20 -19 -20 -8
0 -28 -14 -45 -32 -17 -17 -31 -29 -31 -25 0 4 -14 -8 -31 -28 -17 -19 -37
-35 -44 -35 -7 0 -15 -7 -19 -15 -3 -8 -13 -15 -23 -15 -15 0 -16 -2 -3 -10
13 -8 13 -10 -1 -10 -9 0 -20 -7 -23 -16 -4 -9 -13 -14 -22 -10 -8 3 -12 2 -9
-4 3 -5 -14 -30 -38 -55 -24 -25 -41 -45 -38 -45 3 0 -13 -17 -34 -37 -22 -21
-40 -42 -40 -48 -1 -5 -6 -9 -13 -8 -7 2 -12 -4 -12 -13 0 -8 -4 -13 -9 -9 -5
3 -13 0 -17 -6 -4 -8 -3 -9 4 -5 20 12 13 -3 -12 -31 -14 -15 -22 -31 -19 -37
4 -5 0 -7 -10 -3 -10 4 -14 2 -11 -7 3 -7 -7 -25 -21 -40 -14 -15 -23 -31 -20
-36 3 -5 1 -11 -5 -15 -11 -7 -50 -88 -50 -104 0 -5 -5 -13 -12 -17 -7 -5 -8
-2 -3 7 5 8 4 11 -1 6 -5 -5 -9 -14 -10 -20 0 -7 -2 -20 -2 -30 -1 -11 -7 -15
-14 -11 -7 4 -8 3 -4 -5 4 -6 0 -25 -8 -43 -9 -17 -16 -37 -16 -43 0 -7 -7
-15 -15 -19 -8 -3 -15 -11 -15 -18 0 -9 3 -8 10 2 6 9 10 10 10 3 0 -6 -5 -15
-10 -18 -6 -4 -8 -10 -5 -15 3 -5 1 -11 -5 -15 -6 -4 -8 -11 -5 -16 4 -5 1 -9
-4 -9 -6 0 -10 -3 -10 -7 5 -30 -3 -53 -18 -54 -11 0 -13 -3 -6 -6 10 -3 10
-10 1 -26 -6 -12 -11 -23 -10 -24 8 -12 -1 -21 -15 -17 -16 5 -16 4 0 -6 12
-7 15 -16 9 -23 -4 -7 -8 -21 -8 -32 1 -20 -15 -46 -24 -40 -3 2 -4 -17 -3
-41 0 -24 -3 -44 -9 -44 -5 0 -6 -4 -3 -10 3 -5 3 -10 -2 -10 -4 0 -8 -17 -7
-38 0 -20 -5 -55 -11 -77 -7 -23 -11 -49 -9 -58 1 -9 -2 -17 -8 -17 -7 0 -7
-5 1 -13 6 -8 8 -17 5 -20 -4 -3 -8 -23 -9 -44 -1 -21 -4 -40 -5 -43 -1 -3 -1
-16 0 -29 1 -16 -2 -21 -11 -16 -8 6 -10 4 -4 -6 12 -18 14 -49 3 -43 -4 3 -8
1 -8 -5 0 -5 6 -11 13 -14 9 -3 9 -7 -2 -20 -11 -14 -11 -17 0 -17 11 0 11 -2
-1 -10 -11 -7 -11 -10 -2 -10 10 0 10 -5 2 -20 -8 -14 -8 -20 0 -20 8 0 8 -6
0 -20 -8 -15 -8 -20 2 -20 9 0 9 -3 -2 -10 -13 -9 -13 -10 0 -10 12 0 13 -2 1
-9 -10 -7 -10 -10 -1 -13 10 -3 10 -9 0 -27 -7 -15 -8 -21 -1 -17 10 7 14 -11
14 -66 0 -10 2 -18 6 -18 3 0 6 -16 6 -35 0 -19 -4 -35 -9 -35 -5 0 -1 -7 10
-16 10 -8 12 -12 4 -8 -13 7 -13 6 -1 -9 8 -10 14 -42 15 -71 0 -30 4 -50 7
-44 6 9 17 -21 24 -67 1 -5 6 -20 10 -32 4 -12 6 -25 5 -29 -1 -4 2 -10 7 -13
4 -3 13 -20 19 -38 9 -24 9 -33 0 -37 -6 -2 -3 -5 7 -5 10 -1 15 -5 12 -11 -3
-5 -2 -10 2 -10 11 0 34 -60 27 -72 -3 -5 0 -7 8 -6 7 2 12 -5 12 -14 -1 -10
2 -18 8 -18 5 0 6 -4 3 -10 -3 -5 -2 -10 3 -10 13 0 45 -68 37 -79 -3 -5 3
-16 14 -23 11 -8 21 -20 23 -28 2 -8 12 -23 22 -33 11 -9 16 -20 13 -24 -4 -3
0 -11 9 -17 8 -6 16 -21 17 -33 0 -12 5 -19 9 -17 4 3 8 -1 8 -9 0 -8 7 -17
15 -21 8 -3 15 -12 15 -19 0 -8 11 -27 25 -43 14 -16 25 -33 25 -37 0 -5 6
-15 13 -22 29 -34 37 -45 31 -45 -4 0 3 -8 14 -19 12 -10 22 -23 22 -29 0 -6
6 -15 13 -19 16 -11 46 -49 30 -39 -9 5 -11 2 -7 -8 3 -9 9 -14 14 -13 9 2 70
-71 70 -85 0 -5 4 -7 9 -4 5 3 12 -1 15 -10 4 -10 2 -13 -6 -8 -7 4 -8 3 -4
-4 4 -7 14 -12 22 -12 8 0 12 -4 9 -10 -3 -5 2 -10 11 -10 10 0 14 -3 11 -6
-3 -4 5 -15 18 -26 14 -11 23 -24 20 -29 -4 -5 -2 -9 3 -9 16 0 83 -74 78 -86
-3 -8 2 -11 15 -9 16 3 19 0 14 -15 -5 -16 -3 -19 11 -13 14 5 16 3 11 -12 -7
-16 -5 -16 10 -4 11 9 14 10 9 2 -4 -8 -2 -13 4 -13 6 0 8 -4 5 -10 -3 -5 -1
-10 5 -10 6 0 8 -5 4 -12 -5 -8 0 -7 11 2 11 9 16 10 11 3 -4 -7 -3 -13 1 -13
13 0 103 -87 97 -94 -2 -3 -1 -4 3 -1 9 7 34 -16 27 -26 -3 -5 3 -6 12 -2 12
4 15 3 10 -5 -4 -7 -1 -12 7 -12 15 0 54 -38 50 -48 -2 -4 4 -7 12 -7 9 0 19
-5 23 -11 4 -5 24 -23 44 -38 25 -18 35 -33 31 -44 -4 -14 -3 -15 5 -2 9 12
14 11 34 -5 12 -11 30 -28 39 -37 9 -10 19 -15 23 -11 3 3 6 -1 6 -11 0 -9 4
-14 10 -11 5 3 20 -3 32 -14 12 -12 25 -21 29 -21 4 0 10 -8 13 -18 3 -10 15
-18 26 -19 21 -2 53 -27 45 -35 -3 -3 1 -5 8 -5 12 0 97 -52 97 -60 0 -2 -5
-1 -12 3 -7 4 -8 3 -4 -4 4 -6 13 -9 21 -5 8 3 15 0 15 -6 0 -6 7 -11 16 -11
8 0 12 -4 9 -10 -3 -5 4 -10 15 -10 15 0 20 -5 17 -14 -4 -10 0 -12 14 -9 10
3 19 0 19 -6 0 -6 7 -11 16 -11 10 0 14 -6 11 -15 -4 -8 -1 -17 5 -21 7 -5 8
-2 3 6 -11 17 36 3 51 -16 6 -8 16 -14 23 -14 6 0 14 -7 17 -15 4 -8 10 -12
15 -9 5 3 9 0 9 -5 0 -6 6 -11 13 -11 7 0 31 -13 53 -30 21 -16 44 -30 50 -30
6 0 19 -10 28 -22 9 -13 14 -17 10 -9 -5 9 2 8 19 -5 15 -10 27 -23 27 -27 0
-5 5 -5 10 -2 6 3 10 -1 10 -9 0 -10 6 -13 15 -10 8 4 15 1 15 -5 0 -6 6 -11
14 -11 8 0 17 -7 20 -16 3 -8 10 -12 16 -9 5 3 10 1 10 -4 0 -6 5 -11 11 -11
12 0 40 -26 34 -32 -2 -2 5 -5 17 -5 12 -1 26 -9 30 -18 5 -8 16 -15 23 -15 8
0 15 -7 15 -16 0 -9 5 -12 12 -8 8 5 9 2 4 -11 -5 -15 -4 -16 9 -5 9 8 15 8
15 2 0 -6 8 -13 18 -17 9 -3 31 -17 47 -31 17 -15 24 -23 16 -19 -9 6 -12 4
-7 -4 4 -6 11 -9 16 -6 5 3 21 -8 37 -23 15 -16 33 -29 38 -29 6 0 15 -10 21
-22 6 -12 15 -22 20 -22 5 1 9 -5 9 -11 1 -7 7 -12 14 -10 7 1 34 -20 60 -46
27 -27 54 -51 61 -54 7 -2 13 -15 13 -30 0 -21 3 -25 21 -21 17 4 18 3 6 -6
-13 -9 -12 -11 3 -11 10 0 16 -4 13 -8 -3 -5 8 -19 24 -32 15 -13 26 -29 23
-36 -2 -6 1 -15 8 -20 8 -5 10 -3 5 7 -4 8 2 3 13 -11 11 -14 21 -31 21 -37 0
-7 5 -13 11 -13 8 0 7 -5 -1 -15 -11 -13 -10 -14 5 -8 15 5 17 3 12 -11 -4 -9
-3 -15 2 -11 5 3 12 -4 16 -15 3 -11 10 -20 14 -20 4 0 8 -6 8 -12 0 -7 12
-38 26 -68 14 -30 27 -64 29 -75 2 -11 8 -23 13 -27 6 -5 4 -8 -5 -8 -13 0
-13 -1 0 -10 8 -5 16 -20 18 -32 1 -13 3 -29 4 -35 1 -7 5 -13 9 -13 4 0 8 -8
7 -17 0 -10 3 -31 6 -46 5 -21 3 -27 -6 -22 -7 4 -4 -1 6 -9 15 -12 16 -16 5
-16 -12 0 -12 -2 1 -10 13 -9 13 -10 0 -10 -13 0 -13 -1 0 -10 12 -8 15 -42
15 -199 0 -104 -3 -187 -7 -185 -5 3 -8 2 -9 -3 0 -4 -2 -16 -4 -26 -2 -10 1
-14 7 -11 7 5 8 2 3 -6 -5 -8 -9 -33 -10 -57 -1 -24 -5 -46 -8 -49 -3 -3 -3
-12 0 -20 3 -8 0 -14 -7 -14 -6 0 -9 -4 -6 -9 4 -5 0 -12 -6 -14 -10 -4 -10
-6 0 -6 7 -1 10 -5 7 -11 -3 -5 -8 -26 -11 -47 -2 -20 -8 -40 -12 -43 -4 -3
-7 -15 -6 -28 1 -14 -4 -22 -15 -22 -13 0 -13 -2 -2 -9 9 -6 10 -11 2 -15 -6
-4 -9 -11 -6 -16 3 -5 1 -11 -5 -15 -6 -4 -8 -11 -5 -16 4 -5 -1 -9 -9 -9 -9
0 -13 -6 -10 -13 2 -7 -4 -24 -15 -36 -12 -13 -18 -28 -15 -33 3 -4 0 -7 -7
-6 -7 2 -13 -3 -14 -10 0 -7 -7 -17 -15 -22 -8 -5 -12 -10 -7 -10 4 0 -2 -9
-13 -20 -12 -12 -26 -18 -33 -13 -7 4 -7 0 2 -10 13 -17 7 -22 -21 -18 -4 0
-4 -7 -1 -16 4 -10 2 -14 -4 -10 -12 7 -36 -16 -27 -26 7 -7 -65 -72 -80 -72
-6 -1 -10 -6 -9 -12 1 -6 -4 -17 -13 -23 -12 -11 -13 -10 -8 6 3 10 -6 2 -21
-18 -15 -21 -36 -40 -47 -44 -10 -3 -16 -10 -13 -15 4 -5 0 -9 -8 -9 -8 0 -18
-7 -21 -16 -3 -8 -10 -13 -15 -10 -5 3 -11 -1 -15 -9 -3 -8 -15 -15 -27 -15
-12 0 -20 -3 -16 -6 3 -3 -6 -16 -21 -29 -19 -16 -29 -20 -34 -12 -5 8 -8 6
-8 -5 0 -10 -4 -19 -10 -19 -5 -1 -13 -2 -18 -3 -4 0 -18 -11 -32 -24 -13 -12
-30 -20 -37 -18 -7 3 -16 -2 -21 -10 -5 -8 -17 -17 -28 -18 -10 -2 -18 -9 -16
-15 1 -6 -1 -10 -5 -10 -26 4 -53 -3 -51 -13 2 -8 -8 -12 -24 -12 -15 1 -25
-3 -22 -8 3 -4 -8 -11 -25 -14 -17 -4 -28 -11 -24 -17 4 -6 -6 -8 -26 -5 -21
3 -30 1 -28 -7 4 -10 -7 -14 -50 -17 -7 -1 -13 -5 -13 -10 0 -4 -5 -8 -11 -8
-5 0 -7 6 -3 13 5 7 1 6 -10 -3 -18 -14 -33 -19 -71 -22 -11 -1 -25 -5 -31
-10 -7 -5 -28 -9 -48 -10 -20 -1 -39 -5 -42 -10 -3 -4 -11 -8 -17 -8 -7 0 -6
4 3 10 8 5 10 10 5 10 -6 0 -16 -5 -23 -12 -6 -6 -32 -13 -58 -14 -25 -2 -49
-5 -52 -8 -3 -3 -12 0 -20 7 -12 9 -14 9 -9 0 8 -13 -53 -29 -77 -20 -7 3 -19
0 -25 -6 -6 -6 -11 -8 -11 -4 0 4 -9 3 -20 -3 -17 -9 -19 -8 -13 7 6 16 4 16
-17 -2 -13 -11 -20 -14 -16 -7 7 12 4 12 -15 2 -13 -8 -70 -14 -132 -16 -60
-1 -111 -5 -114 -8 -3 -3 -15 -1 -26 5 -12 7 -17 7 -13 1 3 -5 0 -12 -7 -14
-6 -3 -124 -4 -260 -4 -209 1 -249 3 -257 16 -8 12 -10 12 -10 1 0 -11 -3 -11
-17 0 -14 12 -16 12 -8 0 6 -11 4 -13 -11 -7 -32 13 -85 15 -77 3 4 -6 1 -7
-7 -2 -7 4 -38 10 -69 12 -80 5 -81 5 -81 16 0 5 -8 3 -17 -4 -14 -12 -16 -12
-8 0 6 11 4 13 -10 8 -9 -4 -25 -2 -33 5 -13 11 -14 11 -8 -1 7 -10 3 -11 -15
-6 -13 5 -35 9 -49 10 -47 4 -51 5 -44 16 5 8 1 8 -13 0 -11 -6 -23 -7 -27 -3
-4 3 -19 7 -34 8 -66 3 -77 5 -65 12 6 4 -14 8 -45 9 -32 1 -59 8 -64 15 -4 7
-8 9 -8 5 0 -4 -10 -3 -21 4 -17 9 -20 8 -14 -2 6 -8 4 -10 -6 -3 -8 5 -22 7
-33 5 -10 -1 -15 2 -12 7 3 5 -3 12 -14 15 -13 3 -18 1 -13 -5 3 -7 1 -8 -6
-4 -6 4 -23 10 -38 12 -15 3 -32 12 -38 21 -8 10 -14 12 -18 5 -7 -11 -44 -5
-63 9 -6 5 -14 6 -17 2 -4 -3 -7 -1 -7 5 0 6 -8 9 -18 7 -10 -2 -32 3 -48 10
-36 16 -67 28 -76 29 -3 1 -9 4 -13 8 -4 4 -13 4 -21 1 -8 -3 -14 0 -14 6 0 6
-8 11 -17 11 -9 0 -25 8 -36 17 -11 10 -17 12 -12 4 5 -9 1 -9 -16 2 -23 16
-28 17 -50 17 -5 0 -7 4 -4 10 3 5 0 7 -8 4 -8 -3 -21 1 -28 8 -8 7 -21 14
-29 16 -8 2 -17 8 -18 13 -2 5 -12 9 -23 9 -10 0 -29 10 -41 22 -13 13 -29 22
-36 20 -8 -2 -16 6 -19 18 -4 16 -8 18 -14 8 -7 -10 -9 -9 -9 5 0 10 -4 15
-10 12 -5 -3 -10 -1 -10 5 0 6 -4 9 -9 6 -4 -3 -21 5 -36 18 -20 17 -24 25
-14 30 8 3 3 3 -10 0 -15 -4 -21 -2 -17 4 3 6 -4 14 -16 17 -24 8 -124 105
-120 117 1 4 -3 8 -9 8 -15 0 -69 56 -69 70 0 6 -6 8 -12 4 -8 -5 -7 0 2 11 9
11 10 16 3 11 -8 -4 -13 -1 -13 8 0 10 -6 13 -15 9 -9 -3 -15 -2 -14 3 3 19
-1 35 -9 30 -4 -2 -14 4 -21 16 -7 11 -8 17 -2 13 19 -11 12 7 -11 29 -26 24
-53 75 -49 93 1 7 -5 13 -14 13 -9 0 -13 5 -10 10 4 6 1 17 -5 25 -9 11 -9 15
-1 15 7 0 3 9 -7 21 -12 12 -18 28 -14 41 4 16 2 19 -9 13 -11 -7 -11 -5 1 10
8 10 10 16 3 12 -15 -10 -26 28 -19 66 3 18 -1 30 -11 35 -11 7 -14 20 -11 46
2 20 0 36 -6 36 -6 0 -5 5 2 12 8 8 8 17 0 32 -6 11 -7 21 -2 23 5 2 9 37 8
78 -1 63 2 75 14 70 12 -4 12 -3 3 9 -9 11 -9 15 1 19 10 4 10 6 1 6 -9 1 -10
8 -3 25 5 13 6 27 2 31 -4 3 1 11 11 16 9 6 14 15 11 21 -4 6 0 14 7 19 11 7
11 9 1 9 -9 0 -10 5 -3 19 6 10 7 22 3 26 -4 5 2 5 12 1 16 -5 17 -4 7 8 -10
11 -9 19 1 35 7 12 16 21 19 21 4 0 6 10 5 23 -1 13 4 21 12 19 8 -1 11 2 7 8
-4 6 1 18 11 26 11 9 13 13 7 9 -20 -10 -4 27 21 48 12 10 15 16 8 12 -11 -6
-11 -3 0 14 7 12 16 21 21 21 4 0 5 5 2 11 -4 6 3 13 15 16 12 3 17 9 12 12
-6 4 4 23 24 46 19 22 34 44 34 50 0 5 5 3 10 -5 9 -13 10 -13 11 0 1 8 1 18
0 23 0 4 6 7 15 7 9 0 12 5 8 12 -5 8 -2 9 9 5 9 -3 16 -3 16 1 -4 22 3 31 18
25 9 -4 14 -2 10 4 -7 12 25 41 40 36 7 -3 19 8 29 22 9 14 23 24 30 21 8 -3
13 -2 13 2 -4 22 4 30 26 28 13 -2 22 1 19 6 -3 4 10 15 28 23 18 8 29 14 23
15 -5 0 6 8 25 19 19 10 38 17 43 14 4 -2 7 3 7 11 0 10 7 13 26 10 15 -3 23
-1 20 5 -4 6 2 15 13 20 14 8 21 8 24 -2 3 -7 6 -5 6 5 1 19 35 33 52 22 8 -4
9 -3 5 5 -4 6 0 14 11 17 10 3 28 10 40 16 11 6 27 7 34 3 7 -5 10 -4 5 3 -9
15 30 34 57 27 17 -5 19 -4 7 4 -16 11 -16 11 33 15 6 1 20 8 30 18 10 9 30
15 43 13 14 -1 27 2 31 8 4 6 1 7 -7 2 -9 -6 -11 -4 -5 4 4 7 16 11 26 8 11
-3 19 -1 19 3 0 11 57 30 65 22 3 -4 10 -1 14 6 4 7 20 14 34 16 14 1 33 8 41
15 8 7 20 10 26 6 5 -3 10 -2 10 3 0 9 8 11 54 15 13 1 22 5 19 10 -2 4 4 7
15 7 10 0 22 3 26 7 4 4 19 9 34 11 14 2 31 7 37 11 20 16 65 22 65 9 1 -8 6
-6 14 4 7 10 22 18 33 18 10 0 24 5 31 12 7 7 12 8 12 4 0 -5 7 -3 15 4 8 7
15 10 15 7 0 -3 13 -2 29 3 21 6 31 5 35 -3 2 -7 5 -5 5 4 1 19 48 32 58 16 4
-6 10 -5 17 4 13 17 29 21 79 24 20 1 41 6 45 10 4 5 0 5 -8 0 -10 -5 -12 -5
-5 3 6 5 28 12 50 15 22 3 58 10 80 16 22 5 41 8 44 6 2 -3 10 0 17 5 6 6 26
12 43 15 17 2 40 6 51 10 11 4 20 2 20 -4 0 -6 4 -11 10 -11 5 0 7 6 4 13 -3
8 1 14 8 15 56 5 105 13 118 19 8 3 26 7 40 8 14 1 43 8 65 15 22 7 58 14 80
14 22 1 45 5 51 9 7 4 30 9 52 11 22 2 46 7 53 11 7 5 10 4 6 -1 -3 -6 4 -11
16 -11 17 -2 19 0 7 7 -12 8 -10 10 10 11 14 1 30 3 35 4 6 2 15 4 20 5 26 6
41 5 54 -5 11 -7 13 -7 8 1 -4 7 0 15 9 18 10 4 13 2 8 -7 -5 -8 -2 -7 9 2 9
7 17 11 17 7 0 -3 11 -1 24 4 16 6 28 5 36 -3 10 -9 11 -9 6 1 -4 7 -1 12 7
12 7 0 14 6 14 14 0 8 -6 12 -14 9 -8 -3 -13 2 -13 13 0 9 -3 15 -6 11 -4 -3
-13 0 -20 8 -17 17 -18 29 -2 19 7 -4 8 -3 4 4 -4 6 -13 8 -22 5 -17 -6 -57
31 -46 42 4 4 3 5 -3 3 -15 -5 -75 53 -68 66 3 6 3 8 -2 4 -10 -10 -37 11 -29
23 3 5 -2 6 -10 3 -11 -4 -16 0 -16 11 0 9 -4 14 -8 11 -5 -3 -14 4 -22 14 -8
10 -18 16 -24 13 -5 -4 -7 1 -3 11 4 10 3 15 -3 11 -5 -3 -18 3 -29 14 -11 11
-22 17 -25 14 -3 -4 -6 0 -6 9 0 8 -12 20 -26 26 -14 7 -22 17 -19 22 3 6 -1
10 -10 10 -12 0 -15 5 -11 17 4 10 4 14 0 11 -10 -10 -46 11 -39 23 4 5 1 8
-7 7 -7 -2 -12 3 -11 9 2 7 -3 12 -10 10 -6 -1 -11 3 -10 10 2 8 -4 10 -14 6
-11 -4 -14 -3 -9 5 4 7 1 12 -9 12 -9 0 -13 5 -10 10 4 6 3 9 -2 8 -12 -4 -54
28 -46 35 3 4 1 7 -6 7 -6 0 -31 18 -54 40 -23 21 -60 55 -82 75 -22 19 -40
40 -40 46 0 7 -9 13 -20 15 -11 2 -27 12 -37 23 -9 12 -22 21 -29 21 -7 0 -10
3 -6 6 12 12 -19 31 -56 36 -30 3 -36 1 -32 -10 4 -12 3 -13 -10 -2 -9 8 -15
8 -15 2 0 -6 -8 -11 -17 -10 -62 1 -139 -6 -143 -13 -3 -4 -23 -9 -45 -11 -22
-2 -43 -7 -47 -13 -5 -6 -8 -6 -8 2 0 13 -39 9 -49 -4 -3 -5 -22 -9 -41 -9
-19 -1 -44 -5 -54 -9 -15 -7 -17 -5 -11 6 8 12 6 12 -8 0 -9 -7 -17 -10 -17
-7 0 4 -9 2 -20 -4 -11 -6 -39 -13 -62 -15 -23 -3 -46 -9 -52 -15 -14 -14 -29
-13 -20 3 6 9 4 9 -7 1 -8 -5 -30 -11 -49 -13 -19 -2 -39 -6 -45 -9 -10 -6
-22 -9 -60 -15 -11 -2 -27 -6 -35 -10 -8 -4 -27 -8 -42 -11 -15 -3 -32 -7 -37
-10 -5 -4 -12 -2 -16 4 -4 6 -11 8 -16 4 -5 -3 -7 -9 -4 -14 3 -5 -7 -8 -22
-6 -16 1 -34 -2 -40 -7 -7 -5 -13 -6 -13 -2 0 4 -8 1 -17 -6 -15 -12 -16 -12
-8 1 5 9 0 8 -13 -4 -12 -11 -22 -16 -22 -13 0 4 -12 2 -27 -4 -16 -6 -37 -12
-48 -14 -37 -7 -50 -11 -62 -18 -7 -5 -17 -5 -23 -2 -5 3 -10 1 -10 -5 0 -6
-5 -8 -10 -5 -6 4 -18 1 -27 -6 -8 -8 -27 -14 -42 -14 -14 -1 -35 -6 -46 -12
-23 -12 -76 -27 -87 -25 -5 1 -8 -2 -8 -7 0 -5 -11 -8 -25 -6 -16 1 -25 -3
-25 -11 0 -9 -10 -12 -30 -10 -22 2 -30 -1 -30 -13 0 -14 -2 -14 -10 -1 -6 10
-10 11 -10 3 0 -7 -9 -13 -19 -13 -11 0 -21 -5 -23 -10 -2 -6 -17 -11 -35 -13
-17 -1 -29 -5 -27 -8 2 -4 -8 -10 -24 -14 -15 -4 -28 -5 -28 -3 -1 2 -10 -4
-20 -13 -11 -9 -29 -15 -41 -14 -12 1 -21 -3 -20 -9 1 -6 -9 -12 -22 -14 -13
-2 -31 -10 -38 -18 -8 -8 -18 -12 -23 -9 -4 3 -13 -2 -20 -10 -7 -8 -16 -12
-21 -9 -5 3 -9 0 -9 -7 0 -8 -4 -8 -15 1 -12 10 -15 9 -15 -5 0 -12 -6 -16
-20 -12 -11 3 -18 1 -14 -4 3 -5 -1 -9 -10 -9 -8 0 -16 -6 -19 -12 -3 -10 -8
-9 -23 2 -17 14 -18 14 -6 -1 10 -14 10 -18 -4 -23 -24 -9 -36 -7 -28 6 4 7 3
8 -5 4 -6 -4 -9 -11 -6 -16 3 -5 -4 -11 -15 -15 -11 -3 -20 -11 -20 -16 0 -5
-6 -9 -14 -9 -8 0 -21 -7 -30 -15 -8 -9 -17 -16 -18 -16 -16 1 -48 -14 -48
-21 0 -6 -9 -8 -20 -5 -11 3 -18 1 -15 -3 7 -12 -47 -48 -64 -42 -9 3 -11 0
-6 -7 4 -8 -1 -14 -14 -18 -11 -3 -18 -10 -14 -16 4 -6 -4 -8 -20 -5 -14 3
-26 2 -25 -1 2 -20 -3 -31 -12 -26 -6 3 -10 2 -10 -2 0 -13 -56 -43 -65 -35
-5 4 -5 1 -1 -5 4 -7 2 -13 -4 -13 -6 0 -8 -4 -5 -10 3 -5 -1 -10 -9 -10 -9 0
-16 -5 -16 -12 0 -6 -3 -8 -6 -5 -4 3 -15 -5 -26 -18 -11 -14 -26 -25 -34 -25
-8 0 -14 -8 -14 -17 0 -15 -2 -16 -10 -3 -8 12 -10 11 -10 -7 0 -13 -4 -24
-10 -24 -5 -1 -14 -2 -19 -3 -5 0 -13 -5 -18 -10 -5 -5 -2 -6 7 -2 8 4 3 -2
-12 -14 -16 -12 -28 -28 -28 -35 0 -7 -7 -16 -16 -19 -10 -4 -13 -2 -8 6 4 7
3 8 -4 4 -7 -4 -12 -16 -12 -27 0 -10 -4 -19 -9 -19 -6 0 -18 -13 -27 -29 -10
-17 -21 -28 -26 -25 -4 3 -8 1 -8 -4 0 -16 -37 -52 -45 -44 -5 4 -6 0 -3 -9 4
-9 -2 -22 -12 -29 -11 -8 -17 -17 -15 -20 2 -4 -14 -21 -35 -39 -24 -19 -37
-38 -33 -46 3 -8 -2 -18 -11 -21 -9 -3 -13 -10 -10 -15 3 -5 -1 -12 -9 -15 -9
-3 -18 -17 -21 -30 -4 -16 -11 -22 -19 -18 -7 4 -9 4 -5 -1 4 -4 -1 -19 -12
-33 -11 -13 -17 -28 -14 -33 3 -5 -2 -9 -11 -9 -9 0 -14 -4 -11 -9 8 -12 -4
-42 -13 -37 -4 3 -8 -5 -8 -16 -1 -12 -6 -24 -12 -27 -5 -4 -13 -19 -16 -34
-4 -15 -11 -27 -16 -27 -5 0 -8 -3 -8 -7 4 -22 -2 -33 -13 -27 -8 5 -9 2 -5
-9 3 -9 1 -22 -6 -29 -7 -7 -12 -19 -13 -25 -2 -30 -5 -34 -14 -28 -6 4 -7 -1
-3 -11 4 -12 3 -15 -5 -10 -8 5 -10 2 -6 -9 4 -8 -1 -27 -11 -41 -9 -14 -14
-28 -11 -31 3 -3 -2 -20 -11 -37 -10 -17 -16 -38 -15 -47 2 -9 -4 -21 -12 -28
-8 -7 -12 -21 -8 -33 4 -16 2 -19 -9 -13 -11 7 -12 6 -2 -6 7 -9 8 -20 3 -29
-5 -8 -6 -18 -3 -24 4 -5 -1 -7 -12 -2 -15 5 -16 4 -6 -8 9 -11 9 -15 -1 -19
-11 -4 -11 -6 0 -6 9 -1 10 -6 3 -20 -6 -10 -8 -21 -5 -23 2 -3 -1 -18 -7 -34
-6 -16 -13 -67 -16 -114 -2 -47 -10 -91 -16 -99 -9 -11 -9 -15 1 -19 10 -3 8
-8 -5 -19 -10 -8 -13 -12 -7 -9 7 3 10 -21 10 -74 -1 -43 -5 -76 -9 -73 -5 3
-4 -3 2 -14 7 -14 7 -24 -2 -33 -9 -9 -9 -11 0 -6 8 4 10 -6 8 -34 -2 -25 1
-40 8 -40 8 0 8 -3 2 -8 -15 -11 -17 -32 -3 -32 9 0 8 -4 -2 -10 -11 -7 -12
-12 -3 -18 6 -4 13 -41 15 -87 1 -44 7 -83 11 -86 4 -3 9 -24 11 -47 2 -23 6
-45 9 -49 11 -11 8 -25 -4 -17 -6 3 -4 -5 5 -19 10 -14 18 -40 19 -59 2 -18 8
-42 13 -53 6 -11 10 -31 10 -45 -1 -14 5 -29 11 -35 7 -5 14 -26 15 -47 2 -20
6 -34 10 -31 7 4 12 -15 11 -45 -1 -6 3 -12 7 -12 6 0 13 -16 21 -50 0 -3 5
-11 11 -18 6 -7 11 -27 10 -44 0 -21 2 -27 7 -19 6 9 11 10 15 2 4 -6 5 -15 1
-20 -3 -5 1 -16 10 -24 8 -8 16 -21 17 -28 2 -7 11 -22 20 -33 14 -15 15 -23
6 -35 -7 -9 -8 -13 -4 -9 5 4 20 -5 32 -20 14 -15 19 -29 13 -31 -6 -2 -1 -10
11 -18 12 -8 19 -21 16 -29 -3 -7 0 -16 6 -20 7 -5 8 -2 3 6 -5 9 -4 11 3 6 7
-4 12 -12 12 -17 0 -6 7 -17 15 -26 8 -8 13 -18 10 -23 -3 -4 2 -11 11 -14 9
-4 14 -9 10 -13 -3 -3 3 -13 15 -21 11 -8 18 -20 15 -28 -3 -8 1 -14 10 -14
11 0 14 -6 10 -16 -3 -9 -2 -12 5 -9 6 4 13 -2 16 -14 3 -11 9 -18 14 -15 5 3
9 -2 9 -10 0 -9 5 -16 10 -16 6 0 10 -7 10 -15 0 -8 9 -19 20 -25 12 -6 18
-16 14 -23 -4 -7 -4 -9 1 -5 7 7 41 -24 89 -82 15 -18 16 -24 5 -32 -10 -6 -6
-7 10 -3 19 6 23 4 18 -7 -3 -8 3 -22 14 -31 10 -9 19 -13 19 -7 0 5 -8 14
-17 19 -10 6 -13 11 -6 11 16 0 44 -41 36 -53 -3 -6 -1 -7 5 -3 8 4 12 0 12
-11 0 -14 2 -15 9 -4 5 7 10 9 12 5 2 -5 23 -26 47 -47 23 -20 39 -37 35 -37
-5 0 3 -6 17 -13 14 -8 24 -19 22 -25 -1 -7 1 -11 5 -11 19 3 33 -2 33 -12 0
-5 -5 -7 -12 -3 -7 4 -8 3 -4 -5 4 -6 12 -9 17 -6 5 4 16 0 24 -9 11 -11 12
-16 2 -20 -6 -2 -1 -4 13 -3 16 1 24 -3 22 -11 -1 -8 2 -11 8 -7 5 3 13 -1 16
-9 3 -9 10 -13 15 -10 8 5 13 -10 10 -29 -1 -5 3 -6 9 -2 6 3 7 12 3 18 -3 7
6 0 22 -16 15 -15 32 -27 37 -27 5 0 6 -5 2 -12 -5 -7 -2 -9 8 -5 9 3 24 -3
34 -14 9 -10 23 -19 31 -19 7 0 16 -6 19 -14 3 -8 19 -20 35 -26 16 -7 29 -17
29 -22 0 -5 4 -7 9 -4 5 3 20 -5 34 -18 14 -13 28 -21 31 -18 3 3 6 0 6 -6 0
-7 6 -11 13 -10 6 2 11 -2 10 -9 -1 -6 5 -10 15 -8 9 1 28 -6 41 -16 13 -11
29 -19 35 -19 6 0 17 -9 24 -20 7 -12 18 -20 25 -19 27 3 39 -2 34 -14 -3 -8
1 -14 9 -14 7 0 11 5 7 10 -3 5 4 4 16 -2 11 -7 21 -16 21 -21 0 -6 5 -10 11
-10 5 0 7 5 4 11 -4 6 2 5 13 -2 12 -7 18 -17 16 -21 -5 -8 11 -12 30 -9 18 4
46 -11 40 -21 -4 -7 -2 -8 4 -4 17 10 54 -12 45 -27 -5 -9 -3 -9 8 -1 10 8 20
8 36 -1 13 -6 20 -14 17 -17 -3 -3 1 -6 8 -5 30 1 49 -3 45 -10 -3 -5 6 -9 19
-9 13 -1 32 -5 41 -8 15 -6 15 -8 3 -17 -11 -8 -10 -9 8 -4 25 7 65 -3 57 -14
-2 -5 3 -8 13 -8 46 0 63 -4 57 -13 -4 -6 -3 -9 2 -8 16 4 74 -12 70 -19 -3
-5 10 -8 27 -9 18 0 42 -4 52 -9 10 -4 28 -10 39 -12 11 -2 21 -8 23 -13 2 -5
10 -6 19 -3 9 4 14 2 11 -3 -4 -5 10 -10 30 -11 51 -3 62 -5 62 -12 0 -3 11
-7 25 -7 14 -1 33 -5 43 -9 9 -4 26 -9 37 -10 11 -2 38 -6 60 -10 22 -3 46 -6
53 -7 6 -1 12 -5 12 -9 0 -4 8 -6 17 -5 10 2 33 -1 53 -6 19 -5 43 -10 53 -13
9 -2 21 -6 26 -10 5 -3 12 -1 16 4 3 6 16 7 28 3 12 -4 34 -7 50 -6 15 0 27
-3 27 -8 0 -5 4 -7 9 -3 5 3 13 1 16 -5 5 -8 11 -8 20 0 10 8 14 7 18 -2 4
-11 6 -10 6 0 1 8 6 10 13 6 6 -4 48 -9 92 -10 45 -1 98 -2 119 -3 21 -1 36
-5 33 -9 -7 -12 57 -9 66 3 5 7 8 7 8 0 0 -6 39 -10 98 -10 53 1 101 -1 105
-3 7 -3 413 -4 618 0 48 0 92 -3 99 -7 8 -5 11 -4 6 3 -4 7 13 10 54 8 33 -2
58 0 55 4 -2 3 2 7 10 7 8 0 12 -3 10 -7 -2 -4 2 -7 10 -7 8 0 12 4 9 9 -6 9
2 10 128 13 48 1 93 7 100 12 7 5 33 11 58 12 25 1 53 5 64 8 14 4 16 2 11 -8
-5 -8 1 -6 12 4 15 13 23 15 28 7 6 -9 9 -9 14 -1 4 6 25 13 47 14 21 1 45 6
52 10 7 5 12 3 12 -5 0 -10 2 -11 8 0 9 13 111 34 125 25 4 -2 7 0 7 5 0 5 14
12 30 14 17 3 30 0 30 -4 0 -5 7 -2 16 6 16 17 29 21 20 8 -3 -5 1 -9 9 -9 8
0 12 4 9 9 -5 9 -3 9 36 13 14 1 39 8 55 14 17 7 44 13 62 14 17 1 29 5 27 9
-3 4 5 8 18 8 13 0 30 6 37 12 8 7 11 8 8 2 -3 -6 0 -11 8 -11 8 0 12 3 10 7
-2 4 7 12 20 18 17 8 26 8 31 1 4 -6 14 -2 26 11 11 12 23 18 27 13 3 -5 15
-4 28 2 13 7 20 15 17 18 -4 4 3 5 15 2 11 -2 21 0 21 6 0 5 5 9 11 9 5 0 7
-6 3 -12 -5 -7 5 -3 20 10 31 24 52 29 40 10 -4 -7 -3 -8 5 -4 6 4 9 11 6 16
-7 11 43 23 58 14 7 -4 9 -4 5 1 -9 9 40 37 52 30 4 -3 11 2 14 11 4 9 9 14
12 11 4 -3 23 3 42 14 42 22 56 24 46 7 -4 -7 -3 -8 5 -4 6 4 9 11 6 16 -3 5
11 14 30 21 19 7 35 17 35 22 0 5 6 4 14 -2 11 -9 16 -9 22 0 4 8 3 9 -4 5 -7
-4 -12 -2 -12 3 0 10 14 15 33 12 4 0 7 3 7 9 0 5 6 10 14 10 8 0 22 7 31 16
8 9 22 13 30 10 8 -3 14 0 12 7 -1 7 6 11 15 11 10 -1 16 2 13 6 -3 5 5 12 17
16 12 3 30 16 41 28 10 11 15 14 11 6 -7 -14 43 24 58 45 4 5 10 6 14 2 4 -3
15 3 25 15 11 11 19 18 19 14 0 -4 7 0 16 8 8 9 20 13 26 10 7 -4 8 -2 4 4 -4
6 6 19 21 29 15 10 32 23 36 31 5 7 18 11 30 8 12 -3 17 -3 10 0 -10 4 -10 8
0 19 8 9 16 10 25 3 9 -8 11 -7 7 3 -5 15 121 136 137 131 4 -1 8 4 8 12 0 7
8 20 18 27 15 13 16 12 3 -4 -8 -9 -11 -20 -9 -23 3 -3 12 8 19 24 9 20 18 28
28 24 9 -3 13 -2 9 3 -10 11 10 45 27 45 8 0 14 4 13 9 -4 11 94 117 105 113
5 -1 5 2 2 8 -4 6 1 20 11 31 13 15 19 17 26 7 7 -10 8 -9 7 2 -2 26 13 60 24
53 6 -4 8 0 4 10 -4 11 -2 14 7 11 8 -3 16 4 19 16 3 12 10 19 16 15 6 -3 9 0
5 8 -3 8 6 26 20 40 14 14 22 28 19 31 -4 3 -1 6 6 6 7 0 9 5 6 10 -3 6 -1 10
5 10 6 0 9 4 6 9 -3 5 1 11 9 15 8 3 15 12 15 21 0 8 5 15 12 15 6 0 9 3 5 6
-3 4 1 13 9 21 8 8 12 19 9 24 -4 5 1 9 9 9 9 0 15 3 15 8 -3 20 2 33 11 27 6
-4 9 -3 8 2 -5 13 34 93 42 88 4 -3 8 7 8 21 0 14 5 31 12 37 10 9 11 9 5 -2
-5 -9 -4 -12 3 -7 6 4 9 13 6 20 -3 7 1 20 8 27 7 8 13 23 13 34 0 22 16 45
27 38 4 -2 5 3 2 12 -4 9 1 23 9 33 16 17 17 21 17 47 0 8 8 15 18 16 9 0 12
3 6 5 -15 6 -5 46 13 57 7 5 11 13 7 18 -9 16 17 70 30 62 8 -5 8 -3 -1 8 -9
11 -8 22 4 49 9 19 17 42 17 50 1 8 8 26 15 38 7 13 10 26 8 29 -3 3 1 22 8
43 7 21 15 50 17 66 1 16 7 32 12 35 5 4 10 26 12 50 3 24 8 45 12 49 4 3 8
27 10 54 1 28 9 60 16 72 11 16 12 24 3 33 -6 6 -7 11 -2 11 6 0 10 22 10 50
-1 32 4 51 12 54 7 3 13 10 13 16 0 6 -5 8 -11 4 -8 -4 -8 -1 -2 12 5 11 11
71 12 134 2 74 7 118 14 122 9 6 8 11 -3 18 -8 5 -10 10 -5 10 6 0 11 9 12 20
1 13 -2 18 -10 13 -9 -5 -9 -3 0 8 10 12 10 18 0 29 -10 10 -9 12 6 7 15 -6
16 -4 7 13 -6 11 -7 20 -3 20 4 0 1 5 -7 10 -12 8 -12 10 5 11 11 0 14 3 7 6
-6 2 -10 9 -6 14 3 5 -1 9 -8 9 -9 0 -9 3 2 10 8 5 10 10 4 10 -8 0 -12 23
-13 63 -3 83 -9 202 -11 202 -3 0 -10 42 -12 82 -2 24 -7 43 -13 43 -5 0 -3 5
5 10 13 8 13 10 1 10 -12 0 -12 3 -3 12 7 7 12 17 12 23 0 5 -4 4 -9 -4 -7
-10 -11 -1 -16 32 -4 25 -4 51 1 58 5 8 3 10 -6 4 -10 -6 -12 -3 -8 13 4 13 1
22 -5 22 -8 0 -7 4 2 9 10 7 11 9 0 13 -7 2 -13 17 -14 34 -1 16 -5 36 -8 44
-10 26 -23 84 -22 100 0 8 -5 20 -11 27 -6 6 -11 22 -10 35 1 13 -4 29 -11 36
-6 7 -10 21 -8 32 2 11 -1 20 -7 20 -6 0 -5 7 3 17 8 9 9 14 2 10 -7 -4 -15 5
-22 23 -5 17 -8 30 -5 30 2 0 -3 14 -12 31 -8 17 -14 40 -11 50 3 10 0 17 -6
16 -6 -1 -13 7 -15 18 -2 11 -10 35 -18 53 -8 18 -13 36 -10 41 3 5 -1 12 -9
15 -8 3 -14 9 -13 13 1 4 -6 26 -15 47 -14 31 -15 41 -5 48 10 6 9 8 -3 8 -19
0 -33 26 -22 42 3 7 1 8 -5 4 -8 -5 -14 7 -18 33 -3 22 -13 42 -21 45 -8 4
-13 13 -10 20 3 8 1 16 -4 18 -6 2 -12 15 -12 30 -1 16 -7 24 -14 21 -13 -5
-17 7 -13 40 1 10 -4 16 -12 15 -8 -2 -13 7 -12 24 0 15 -5 26 -10 25 -6 -1
-12 8 -14 21 -2 12 -8 22 -13 22 -5 0 -9 6 -9 14 0 8 -6 17 -12 19 -10 4 -10
6 1 6 8 1 4 8 -10 21 -15 12 -19 19 -10 20 10 0 9 5 -5 18 -10 9 -20 24 -22
32 -2 8 -8 18 -14 21 -6 4 -8 11 -4 17 3 6 1 14 -7 19 -16 10 -50 63 -40 63 5
0 3 4 -4 8 -6 4 -13 14 -15 22 -2 8 -11 23 -20 34 -10 11 -18 28 -18 37 0 10
-9 24 -21 32 -11 8 -21 24 -22 35 0 11 -4 19 -7 17 -3 -2 -12 5 -19 17 -7 11
-8 18 -3 14 5 -3 9 1 9 8 0 8 -6 12 -13 9 -14 -5 -47 50 -37 61 4 3 1 6 -5 6
-6 0 -21 14 -33 32 -13 17 -18 28 -11 24 8 -5 10 -2 6 8 -3 9 -9 14 -12 13 -4
-1 -7 1 -7 4 0 3 -8 13 -18 23 -9 10 -14 22 -11 28 4 6 3 8 -3 5 -5 -4 -16 5
-23 18 -7 14 -17 25 -22 25 -5 0 -6 5 -3 10 3 6 0 10 -7 10 -9 0 -9 3 2 10 13
9 13 10 0 10 -19 1 -53 47 -45 60 4 6 3 9 -2 8 -4 -2 -9 1 -10 5 -1 4 -16 20
-32 35 -15 15 -27 35 -26 44 2 11 -2 15 -13 11 -10 -4 -13 -2 -8 5 3 6 1 14
-6 19 -7 4 -22 19 -33 33 -15 19 -16 22 -2 11 9 -7 17 -9 17 -4 0 5 -12 15
-26 22 -15 6 -24 15 -20 18 3 3 -3 12 -14 20 -11 8 -20 23 -20 34 0 11 -7 19
-17 19 -9 0 -14 3 -11 6 3 3 -12 24 -33 46 -21 23 -39 47 -39 55 0 7 -5 13
-11 13 -5 0 -7 5 -3 12 4 6 3 8 -3 5 -6 -4 -16 0 -23 8 -7 8 -10 15 -6 15 3 0
-7 12 -23 28 -15 15 -26 33 -24 40 3 7 -1 11 -9 10 -7 -2 -12 3 -10 10 1 6 -5
12 -15 12 -9 0 -14 3 -11 6 3 3 -9 20 -27 37 -17 18 -30 38 -27 46 3 10 0 12
-13 7 -16 -6 -16 -4 -4 11 8 9 9 14 4 11 -15 -9 -79 58 -69 73 4 8 3 9 -4 5
-7 -4 -23 5 -37 21 -26 29 -33 49 -13 37 7 -4 8 -3 4 4 -4 6 -14 8 -24 5 -9
-3 -14 -3 -10 1 9 11 -23 46 -35 39 -6 -3 -7 -2 -4 4 3 5 -3 15 -13 23 -10 8
-17 17 -14 22 3 4 -2 8 -10 8 -9 0 -16 4 -16 10 0 5 -14 23 -30 40 -17 18 -27
36 -24 43 4 7 3 9 -1 4 -11 -9 -77 62 -69 74 3 5 2 8 -3 7 -14 -5 -64 50 -66
71 -1 12 -6 17 -16 13 -9 -3 -12 -1 -7 6 4 7 1 12 -8 12 -9 0 -15 3 -14 8 1 4
-10 26 -25 49 -15 24 -27 45 -27 48 0 3 -12 23 -26 45 -14 21 -23 44 -19 50 3
6 1 9 -6 8 -7 -2 -13 2 -14 7 0 6 -4 16 -9 24 -5 8 -4 17 5 23 11 8 10 9 -3 4
-17 -5 -19 -2 -22 37 -1 6 -7 16 -14 20 -7 5 -10 12 -7 18 4 5 2 9 -4 9 -6 0
-8 7 -5 15 4 8 1 22 -6 30 -7 8 -10 21 -7 30 4 8 -1 21 -9 30 -9 8 -12 15 -8
15 3 0 2 6 -3 13 -5 6 -8 27 -8 45 1 17 -3 32 -8 32 -5 0 -4 7 3 16 11 12 11
15 0 12 -9 -2 -14 9 -16 32 -2 19 -5 50 -7 67 -2 18 2 35 7 37 8 3 8 7 0 13
-12 10 -12 52 0 72 6 10 6 12 -2 7 -14 -8 -12 20 2 43 6 10 5 12 -2 7 -15 -9
-15 -1 -2 24 7 13 7 21 -1 26 -8 4 -7 9 2 15 11 7 11 9 1 9 -9 0 -10 5 -4 18
5 9 7 23 5 30 -3 7 3 24 12 39 9 14 12 22 6 19 -6 -4 -11 -3 -11 3 0 5 4 12 9
16 6 3 8 15 6 26 -2 11 2 22 11 26 8 3 13 12 10 19 -3 7 1 20 9 28 8 8 15 18
15 23 0 14 35 78 45 83 6 3 9 8 8 12 -1 3 4 12 12 18 8 7 15 17 15 23 0 5 11
20 24 32 14 13 22 26 19 29 -4 3 1 6 11 6 9 0 15 4 12 8 -7 12 40 52 62 52 14
0 15 2 2 10 -11 7 -9 11 13 19 15 6 27 13 27 16 0 4 -6 3 -12 0 -7 -3 -4 0 6
7 11 7 30 23 42 34 13 12 25 19 28 16 3 -3 6 0 6 7 0 7 5 9 10 6 6 -3 10 -2
10 2 0 11 55 44 64 38 3 -3 4 -2 1 1 -2 4 6 15 18 24 17 14 25 16 37 7 8 -6
12 -8 8 -3 -4 5 0 16 9 25 9 9 17 14 17 12 1 -2 12 2 26 9 14 8 28 13 33 12 4
-1 7 3 7 9 0 5 5 7 10 4 6 -3 10 -3 10 2 0 14 50 33 50 20 0 -7 7 -3 15 7 8
11 15 16 15 12 0 -5 6 -3 14 3 11 9 15 9 19 -1 4 -8 6 -7 6 5 1 15 19 22 45
18 5 -1 16 5 25 13 10 9 27 14 39 11 13 -2 20 0 17 4 -6 11 19 21 50 21 12 0
35 7 51 14 15 8 31 13 36 10 5 -3 16 0 25 8 12 9 15 9 9 1 -5 -9 -2 -11 8 -7
9 3 16 9 16 13 0 4 12 6 28 6 15 -1 35 2 44 7 10 5 19 4 23 -2 9 -15 24 -3 21
18 -2 9 -9 17 -17 17 -8 0 -14 5 -14 12 0 6 -4 15 -9 20 -5 5 -6 3 -2 -4 4 -8
1 -13 -9 -13 -8 0 -18 6 -21 14 -3 7 -23 22 -45 31 -23 11 -38 24 -35 31 3 7
-2 10 -15 7 -10 -3 -19 0 -19 6 0 6 -7 11 -16 11 -9 0 -28 8 -42 18 -15 10
-48 29 -74 42 -27 13 -48 27 -48 31 0 5 -7 5 -17 2 -10 -4 -14 -2 -9 5 4 7 -1
10 -14 7 -12 -2 -24 3 -30 15 -6 12 -17 16 -30 13 -12 -3 -20 0 -20 6 0 7 -4
9 -10 6 -5 -3 -10 -2 -10 4 0 6 -7 8 -15 5 -9 -4 -15 0 -15 10 0 9 -6 13 -15
10 -8 -3 -29 1 -46 10 -18 9 -38 16 -45 16 -7 0 -14 5 -16 12 -3 7 -18 12 -34
13 -16 0 -28 5 -27 11 1 6 -12 10 -30 9 -17 -1 -45 5 -61 14 -17 8 -46 16 -66
18 -19 2 -37 7 -40 11 -3 4 -21 9 -40 11 -19 2 -37 6 -40 10 -3 4 -23 8 -45 9
-22 2 -55 7 -73 13 -18 6 -56 12 -84 13 -29 2 -54 8 -56 14 -1 5 -12 8 -23 5
-10 -3 -27 1 -36 8 -10 8 -14 9 -10 2 4 -6 3 -14 -3 -18 -5 -3 -10 -2 -10 4 0
6 -7 7 -17 4 -11 -5 -14 -3 -8 6 6 10 3 11 -12 2 -14 -7 -23 -7 -31 1 -7 7
-12 8 -12 3 0 -12 -280 -12 -300 0 -9 5 -11 4 -6 -4 9 -13 -29 -12 -51 2 -9 6
-11 3 -6 -9z m-4357 -5298 c0 -2 -8 -10 -17 -17 -16 -13 -17 -12 -4 4 13 16
21 21 21 13z"/>
<path d="M5315 9400 c-3 -5 -1 -10 4 -10 6 0 11 5 11 10 0 6 -2 10 -4 10 -3 0
-8 -4 -11 -10z"/>
<path d="M4694 8918 l-19 -23 23 19 c21 18 27 26 19 26 -2 0 -12 -10 -23 -22z"/>
<path d="M6987 7079 c7 -7 15 -10 18 -7 3 3 -2 9 -12 12 -14 6 -15 5 -6 -5z"/>
<path d="M4835 5530 c3 -5 8 -10 11 -10 2 0 4 5 4 10 0 6 -5 10 -11 10 -5 0
-7 -4 -4 -10z"/>
<path d="M8540 5323 c0 -6 -9 -10 -20 -8 -19 4 -19 3 0 -32 11 -20 16 -41 13
-47 -3 -6 -2 -8 2 -3 11 9 77 -131 69 -145 -4 -7 -2 -8 4 -4 13 8 28 -37 17
-53 -4 -7 0 -8 11 -4 12 4 15 3 10 -5 -4 -7 -2 -12 5 -12 7 0 9 -3 6 -6 -4 -4
3 -20 15 -37 12 -17 17 -28 11 -24 -6 4 6 -27 28 -69 21 -42 36 -80 34 -84 -3
-4 2 -10 10 -14 8 -3 15 -17 15 -31 0 -14 7 -37 16 -51 9 -13 14 -27 10 -31
-3 -4 1 -14 9 -23 9 -10 15 -21 14 -26 -4 -21 2 -35 11 -29 6 3 10 -4 10 -17
0 -13 6 -30 13 -37 10 -11 9 -13 -3 -7 -12 6 -11 4 1 -6 11 -9 15 -26 14 -53
-1 -22 0 -34 2 -27 8 20 23 13 23 -11 0 -13 6 -29 13 -36 10 -11 10 -13 0 -7
-7 4 -13 2 -13 -3 0 -6 7 -11 16 -11 8 0 12 -4 9 -10 -3 -5 -1 -18 4 -28 7
-13 6 -23 -2 -32 -10 -10 -9 -12 5 -7 10 4 18 -1 21 -14 3 -11 0 -19 -6 -19
-8 0 -7 -4 2 -9 7 -5 11 -13 7 -19 -3 -5 1 -13 10 -16 9 -4 14 -9 11 -13 -4
-3 -2 -12 4 -20 9 -9 8 -13 0 -13 -6 0 -11 -4 -11 -10 0 -5 7 -6 17 -3 9 4 14
2 10 -3 -3 -6 -2 -16 4 -24 6 -11 9 -11 9 -2 0 10 5 10 20 2 11 -6 20 -7 20
-3 0 4 6 1 13 -8 7 -9 17 -17 22 -18 29 -4 45 -14 39 -23 -4 -6 -2 -8 4 -5 14
9 43 -3 36 -14 -3 -5 2 -6 10 -3 11 4 16 0 16 -10 0 -11 9 -16 26 -16 14 0 23
-4 20 -8 -3 -5 0 -9 7 -9 22 0 67 -35 68 -52 0 -10 3 -11 6 -4 3 10 7 10 18 0
7 -7 10 -16 7 -21 -3 -5 0 -6 5 -3 13 8 65 -31 58 -43 -3 -4 5 -6 17 -2 11 3
19 1 16 -4 -2 -5 7 -20 20 -34 14 -14 22 -18 18 -10 -4 8 1 5 12 -7 11 -13 23
-23 27 -23 7 0 85 -79 85 -87 0 -8 28 -33 38 -33 6 0 12 -7 16 -15 3 -8 0 -15
-7 -15 -7 0 -1 -6 12 -13 13 -6 29 -21 35 -31 6 -11 21 -31 34 -44 12 -13 19
-28 16 -34 -4 -6 -3 -8 3 -5 6 4 13 -3 16 -14 3 -12 10 -18 16 -14 6 3 11 -1
11 -11 0 -9 8 -23 18 -31 9 -8 11 -12 5 -8 -9 4 -11 1 -7 -9 3 -9 9 -14 13
-12 4 3 13 -4 20 -16 7 -11 9 -18 4 -15 -5 3 -9 -4 -10 -16 0 -12 1 -16 4 -9
7 17 20 15 27 -5 8 -22 28 -56 45 -77 7 -9 10 -16 6 -16 -3 0 3 -16 15 -35 12
-19 18 -35 13 -35 -4 0 -3 -4 2 -8 18 -13 35 -51 35 -77 0 -15 4 -24 10 -20 6
3 10 -3 10 -14 0 -12 5 -21 12 -21 6 0 9 -3 5 -6 -3 -4 0 -18 7 -33 7 -14 11
-35 9 -46 -3 -13 -1 -16 4 -8 6 8 12 0 19 -22 8 -25 8 -32 0 -27 -6 3 -3 -6 6
-20 10 -15 19 -40 20 -57 1 -16 6 -27 10 -25 8 5 11 -17 11 -68 -1 -16 3 -25
8 -22 9 5 11 -4 13 -53 1 -12 4 -25 9 -29 12 -12 8 -26 -5 -18 -10 6 -10 4 0
-8 15 -19 19 -40 26 -126 3 -43 1 -60 -6 -56 -7 5 -8 2 -3 -6 4 -7 8 -27 9
-44 1 -17 5 -37 10 -45 7 -10 6 -12 -4 -6 -10 6 -11 2 -6 -18 4 -16 1 -27 -7
-30 -9 -4 -9 -6 1 -6 6 -1 12 -6 12 -12 0 -5 -5 -7 -11 -3 -8 4 -8 1 -2 -12 5
-11 8 -28 7 -39 -1 -11 -5 -40 -7 -64 -3 -24 -11 -48 -19 -52 -10 -7 -11 -9 0
-9 7 0 10 -5 7 -10 -4 -6 -8 -23 -11 -38 -3 -15 -7 -34 -11 -42 -3 -8 -7 -28
-9 -44 -1 -16 -7 -32 -11 -35 -5 -3 -10 -17 -11 -31 0 -13 -9 -30 -18 -37 -10
-8 -13 -13 -6 -13 10 0 10 -5 2 -20 -6 -11 -7 -20 -3 -20 4 0 -1 -7 -11 -15
-14 -11 -16 -15 -5 -15 10 0 10 -3 3 -8 -7 -4 -14 -18 -16 -32 -2 -15 -9 -24
-17 -22 -11 2 -12 0 -4 -10 8 -9 8 -18 -1 -30 -7 -10 -15 -16 -18 -13 -2 3 -5
-2 -5 -10 0 -8 4 -12 8 -9 4 2 1 -9 -7 -26 -9 -16 -19 -30 -24 -30 -4 0 -7 -6
-7 -12 1 -20 -24 -78 -34 -78 -5 0 -9 -7 -9 -15 0 -8 -8 -15 -17 -16 -10 0
-13 -3 -6 -5 17 -7 4 -34 -16 -34 -14 0 -14 -2 -1 -10 10 -6 11 -10 3 -10 -7
0 -13 -7 -13 -15 0 -8 -4 -15 -10 -15 -5 0 -10 -7 -10 -16 0 -10 -5 -14 -16
-10 -8 3 -13 2 -9 -3 3 -5 -1 -16 -9 -24 -8 -8 -12 -17 -9 -21 4 -3 1 -6 -6
-6 -7 0 -9 -5 -6 -10 3 -6 -1 -10 -9 -10 -9 0 -15 -6 -13 -12 1 -7 -4 -12 -10
-11 -7 2 -13 -4 -13 -12 0 -8 -4 -15 -10 -15 -5 0 -10 -8 -10 -17 0 -15 -2
-16 -10 -3 -8 13 -10 13 -10 -2 0 -20 -39 -60 -51 -52 -5 3 -6 -3 -2 -12 5
-13 3 -16 -10 -11 -9 3 -17 2 -17 -4 0 -16 -27 -39 -35 -31 -5 4 -5 2 -2 -4 5
-9 -55 -74 -69 -74 -10 0 -42 -39 -36 -44 3 -3 -7 -6 -22 -6 -16 0 -25 -4 -21
-10 3 -5 -1 -10 -9 -10 -9 0 -15 -5 -13 -12 1 -7 -5 -13 -13 -13 -8 0 -14 -6
-13 -13 2 -7 -1 -12 -6 -12 -6 0 -25 -14 -43 -30 -33 -31 -55 -40 -42 -17 4 7
3 9 -2 4 -5 -5 -9 -14 -9 -20 -1 -7 -6 -11 -13 -10 -7 2 -12 -4 -12 -13 0 -8
-4 -13 -9 -10 -5 3 -14 -1 -21 -10 -7 -8 -19 -13 -27 -10 -8 3 -11 2 -8 -4 3
-5 -4 -14 -15 -20 -11 -6 -20 -8 -20 -5 0 3 -10 -4 -22 -15 -12 -11 -28 -18
-36 -15 -7 2 -10 0 -7 -5 6 -9 -17 -15 -40 -10 -5 1 -7 -2 -3 -6 4 -4 -4 -13
-18 -21 -32 -16 -37 -16 -28 -1 4 7 3 8 -5 4 -6 -4 -9 -11 -6 -16 6 -9 -23
-22 -35 -15 -4 3 -11 -2 -14 -11 -3 -8 -10 -12 -16 -9 -5 3 -10 1 -10 -5 0 -6
-4 -9 -9 -5 -5 3 -13 0 -16 -6 -4 -5 -13 -8 -21 -5 -8 3 -14 1 -14 -4 0 -5 -7
-6 -17 -3 -11 4 -14 3 -9 -5 6 -11 0 -14 -20 -11 -4 0 -10 -5 -14 -11 -4 -7
-19 -13 -34 -13 -14 -1 -26 -6 -26 -10 0 -5 -4 -6 -9 -3 -5 4 -11 1 -13 -5 -2
-6 -18 -12 -35 -12 -20 -1 -29 -6 -26 -14 3 -7 -2 -13 -11 -13 -8 0 -23 -11
-32 -25 -9 -14 -21 -22 -27 -18 -6 3 -7 1 -3 -6 4 -6 13 -8 19 -4 9 5 9 3 1
-8 -14 -17 -15 -50 -2 -66 6 -7 3 -15 -9 -23 -11 -6 -12 -10 -3 -7 9 2 21 -11
32 -33 19 -37 72 -77 82 -61 4 6 18 6 36 1 17 -5 30 -5 30 -1 0 11 54 7 62 -4
5 -6 8 -6 8 1 0 7 7 15 16 18 10 4 13 2 8 -7 -6 -9 -4 -9 8 1 8 7 33 13 56 15
22 1 38 5 36 8 -5 9 56 20 67 13 5 -3 9 0 9 6 0 6 5 8 10 5 6 -3 10 -1 10 4 0
6 10 11 23 11 13 0 29 6 36 13 11 10 13 9 7 -3 -6 -12 -5 -11 6 1 7 9 21 15
31 13 11 -1 16 0 13 4 -10 9 53 32 71 25 10 -4 14 -2 10 4 -6 10 53 43 78 43
7 0 15 5 17 10 2 6 13 12 25 13 13 0 25 7 27 14 3 6 14 10 25 8 12 -2 20 1 18
8 -1 7 6 11 16 11 9 -1 17 2 17 6 0 8 41 25 49 21 2 -2 8 4 13 13 5 9 18 16
28 16 11 0 20 5 20 11 0 7 9 9 21 6 12 -3 18 -3 15 0 -3 3 4 14 16 24 22 20
33 24 24 11 -3 -5 1 -9 8 -9 8 0 12 6 9 14 -5 12 8 18 30 14 5 -1 6 3 2 9 -3
5 1 10 10 10 10 0 13 5 9 12 -5 7 -2 9 8 5 9 -3 24 4 35 16 32 35 63 58 63 46
0 -5 4 -8 10 -4 5 3 6 13 3 23 -6 15 -5 16 12 2 10 -8 16 -10 12 -4 -4 6 2 22
13 34 11 13 20 20 20 17 0 -3 28 22 62 56 34 34 65 61 70 60 4 -2 7 3 5 10 -1
6 4 11 11 9 8 -1 11 1 8 6 -7 11 83 108 96 104 6 -2 8 3 5 11 -6 15 70 104 85
99 5 -1 7 1 5 5 -7 12 12 55 21 49 5 -3 14 11 21 30 7 18 17 34 22 34 6 0 7
-6 3 -12 -4 -7 -3 -9 1 -5 5 4 10 15 11 23 5 30 13 44 28 44 8 0 13 8 12 17
-3 19 15 43 26 36 4 -2 5 2 2 10 -3 8 0 18 7 23 8 5 10 3 4 -6 -5 -9 -4 -11 4
-6 7 4 10 13 8 19 -2 7 0 20 5 31 8 15 12 16 20 5 8 -11 9 -10 4 4 -7 21 3 49
15 41 5 -3 9 -2 8 3 -4 21 3 36 29 60 15 15 21 23 15 19 -7 -4 -13 -4 -13 1 1
13 27 43 32 37 4 -3 6 1 5 8 -1 32 4 49 12 43 5 -3 12 -1 16 5 3 5 0 10 -7 10
-9 0 -9 3 2 10 8 5 11 10 7 10 -4 0 -2 10 5 23 13 24 15 29 17 53 0 8 5 13 10
10 5 -3 11 12 15 34 3 22 11 40 16 40 6 0 9 3 9 8 -4 22 2 42 11 37 6 -3 10
-1 10 4 0 6 -6 11 -12 11 -10 0 -10 2 0 9 8 4 13 10 12 12 -5 11 14 79 22 79
5 0 7 4 4 8 -3 5 1 19 8 33 7 13 10 31 8 38 -3 10 0 11 9 5 11 -6 12 -5 3 7
-15 18 1 64 17 53 8 -5 9 -3 3 7 -14 23 -3 111 18 137 11 13 11 14 -1 7 -10
-6 -12 -4 -5 6 8 14 10 29 13 102 0 21 5 36 10 33 5 -4 7 4 3 16 -4 16 -2 19
9 13 11 -7 12 -6 3 6 -12 14 -11 100 1 119 3 5 3 10 -2 10 -12 0 -10 184 2
192 7 5 6 8 0 8 -6 0 -10 22 -9 53 0 28 -4 58 -10 66 -8 11 -8 13 2 7 15 -9
15 -5 2 30 -6 15 -12 49 -14 75 -2 26 -6 52 -10 57 -3 6 -2 13 4 17 6 4 4 12
-5 22 -10 9 -14 26 -11 44 2 16 0 29 -6 29 -7 0 -6 5 1 14 10 11 9 16 -3 23
-8 5 -16 25 -18 46 -1 20 -7 37 -13 37 -5 0 -3 5 5 10 8 5 10 10 5 10 -6 0
-16 14 -22 30 -8 22 -8 30 0 30 6 0 2 6 -8 14 -11 8 -16 19 -12 30 5 11 3 15
-5 10 -7 -5 -9 -2 -5 9 3 9 2 17 -4 19 -5 2 -10 17 -12 35 -1 17 -5 29 -9 26
-7 -4 -12 13 -6 20 1 1 -5 16 -14 32 -44 84 -68 136 -67 142 3 20 -2 34 -11
28 -6 -4 -10 5 -10 20 0 14 -7 28 -15 31 -8 4 -15 17 -15 31 0 13 -4 21 -10
18 -5 -3 -10 1 -10 9 0 9 -4 16 -10 16 -5 0 -10 5 -10 11 0 5 6 7 13 3 6 -5
-3 7 -20 25 -33 33 -39 46 -25 54 4 2 1 2 -5 1 -12 -3 -17 9 -14 29 0 4 -4 6
-11 5 -6 -2 -14 6 -16 17 -2 11 -13 27 -23 36 -11 9 -19 21 -19 28 0 6 -6 11
-12 11 -9 0 -8 4 2 10 13 8 12 10 -2 10 -10 0 -18 5 -18 11 0 7 -8 19 -18 28
-9 9 -24 25 -32 35 -13 18 -13 19 0 11 8 -4 -2 8 -22 27 -37 35 -50 56 -25 42
6 -4 -10 15 -38 43 -92 91 -112 115 -90 107 11 -4 18 -5 15 -3 -40 34 -52 42
-45 30 6 -10 4 -12 -4 -7 -7 5 -10 15 -7 23 4 8 1 11 -5 8 -6 -4 -13 2 -16 13
-3 13 -11 18 -19 15 -10 -4 -12 0 -8 11 4 11 2 16 -7 14 -8 -2 -13 3 -12 10 2
6 -6 12 -18 12 -11 0 -18 4 -15 9 3 5 -5 16 -19 25 -16 11 -22 22 -19 34 5 13
4 14 -4 3 -9 -12 -13 -12 -26 2 -12 11 -13 17 -3 20 6 3 3 6 -8 6 -23 1 -105
74 -105 93 0 10 -2 10 -8 1 -6 -9 -12 -7 -22 7 -8 11 -20 20 -27 20 -7 0 -13
4 -13 8 0 5 -11 15 -25 22 -14 7 -25 20 -25 27 0 8 -4 11 -10 8 -5 -3 -10 -1
-10 4 0 6 -3 10 -7 9 -10 -4 -54 27 -48 33 2 3 -5 5 -16 6 -19 2 -54 30 -54
44 0 4 -4 11 -9 16 -6 5 -6 2 -1 -6 6 -11 4 -13 -9 -8 -10 4 -22 7 -27 7 -6 0
-7 5 -4 10 3 6 1 10 -6 10 -6 0 -18 8 -26 18 -8 9 -11 11 -8 4 6 -11 3 -11
-14 0 -12 7 -21 17 -21 21 0 5 -7 7 -15 3 -8 -3 -23 3 -32 13 -10 10 -35 25
-57 32 -21 8 -41 20 -43 27 -3 7 -13 10 -24 7 -13 -4 -19 -1 -19 9 0 9 -7 13
-19 11 -11 -2 -22 3 -25 11 -3 8 -13 14 -22 14 -9 0 -23 8 -31 18 -8 9 -12 11
-8 5 3 -7 1 -13 -4 -13 -6 0 -11 5 -11 11 0 5 -4 8 -9 5 -13 -8 -42 4 -36 15
3 4 -3 6 -14 4 -11 -2 -27 5 -36 15 -10 11 -26 17 -40 14 -16 -3 -27 2 -34 13
-7 12 -10 14 -11 4 0 -11 -3 -11 -17 0 -9 8 -18 13 -20 12 -8 -7 -24 -2 -19 5
3 5 -5 8 -17 7 -12 -1 -26 0 -32 3 -5 4 -19 6 -30 7 -11 0 -20 5 -20 12 0 6
-4 15 -8 20 -5 4 -7 1 -5 -7 2 -9 -3 -13 -12 -11 -8 2 -27 4 -42 5 -17 1 -28
7 -29 16 0 11 -2 12 -6 2 -4 -10 -9 -9 -20 5 -8 10 -11 12 -8 5 8 -16 -26 -13
-37 3 -5 6 -8 6 -8 -2z"/>
<path d="M8745 4760 c3 -5 8 -10 11 -10 2 0 4 5 4 10 0 6 -5 10 -11 10 -5 0
-7 -4 -4 -10z"/>
<path d="M9850 3340 c0 -5 5 -10 11 -10 5 0 7 5 4 10 -3 6 -8 10 -11 10 -2 0
-4 -4 -4 -10z"/>
<path d="M6556 2188 c3 -5 10 -6 15 -3 13 9 11 12 -6 12 -8 0 -12 -4 -9 -9z"/>
<path d="M10170 1060 c0 -5 5 -10 11 -10 5 0 7 5 4 10 -3 6 -8 10 -11 10 -2 0
-4 -4 -4 -10z"/>
</g>
</svg>
