<svg xmlns="http://www.w3.org/2000/svg" width="68" height="47"><path fill="#FFF" d="M0 0h67v45.5H0z"/><path fill="#164194" d="M1.3 1.2h64.4v42.9H1.3z"/><path d="M32.1 10.6l1.4-1 1.3 1-.5-1.6 1.4-1H34l-.5-1.6L33 8h-1.7l1.3 1m-7.5 3.5l1.4-1 1.3 1-.5-1.6 1.4-1H27l-.5-1.6-.6 1.6h-1.7l1.4 1m-4.3 2.5l-.5 1.7h-1.7l1.4 1-.6 1.6 1.4-1 1.4 1-.6-1.6 1.4-1h-1.7m-2.4 8.6l1.4 1-.5-1.6 1.3-1h-1.7l-.5-1.6-.5 1.6h-1.7l1.4 1-.5 1.6m3.7 4.4l-.5-1.6-.5 1.6h-1.7l1.4 1-.6 1.6 1.4-1 1.4 1-.6-1.6 1.4-1m3.5 5.2l-.5-1.6-.6 1.6h-1.7l1.4 1-.5 1.6 1.4-1 1.3 1-.5-1.6 1.4-1m5.3 1.9l-.5-1.7-.5 1.7h-1.7l1.3.9-.5 1.7 1.4-1 1.3 1-.5-1.7 1.4-.9m5.3-1.9l-.5-1.6-.5 1.6h-1.7l1.4 1-.5 1.6 1.3-1 1.4 1-.5-1.6 1.3-1m3.5-5.2l-.5-1.6-.6 1.6h-1.7l1.4 1-.5 1.6 1.4-1 1.3 1-.5-1.6 1.4-1m1.9-7h-1.7l-.6-1.7-.5 1.7h-1.7l1.4 1-.5 1.6 1.3-1 1.4 1-.5-1.6m-4.1-5.5l1.4-1 1.3 1-.5-1.6 1.4-1h-1.7l-.5-1.6-.6 1.6h-1.7l1.4 1m-4.3-7.7L40 9.9h-1.7l1.4 1-.5 1.6 1.3-1 1.4 1-.5-1.6 1.4-1h-1.7" fill="#FFED00"/><path fill="#FFF" d="M0 0h67v45.5H0z"/><path fill="#164194" d="M1.3 1.2h64.4v42.9H1.3z"/><path d="M32.1 10.6l1.4-1 1.3 1-.5-1.6 1.4-1H34l-.5-1.6L33 8h-1.7l1.3 1m-7.5 3.5l1.4-1 1.3 1-.5-1.6 1.4-1H27l-.5-1.6-.6 1.6h-1.7l1.4 1m-4.3 2.5l-.5 1.7h-1.7l1.4 1-.6 1.6 1.4-1 1.4 1-.6-1.6 1.4-1h-1.7m-2.4 8.6l1.4 1-.5-1.6 1.3-1h-1.7l-.5-1.6-.5 1.6h-1.7l1.4 1-.5 1.6m3.7 4.4l-.5-1.6-.5 1.6h-1.7l1.4 1-.6 1.6 1.4-1 1.4 1-.6-1.6 1.4-1m3.5 5.2l-.5-1.6-.6 1.6h-1.7l1.4 1-.5 1.6 1.4-1 1.3 1-.5-1.6 1.4-1m5.3 1.9l-.5-1.7-.5 1.7h-1.7l1.3.9-.5 1.7 1.4-1 1.3 1-.5-1.7 1.4-.9m5.3-1.9l-.5-1.6-.5 1.6h-1.7l1.4 1-.5 1.6 1.3-1 1.4 1-.5-1.6 1.3-1m3.5-5.2l-.5-1.6-.6 1.6h-1.7l1.4 1-.5 1.6 1.4-1 1.3 1-.5-1.6 1.4-1m1.9-7h-1.7l-.6-1.7-.5 1.7h-1.7l1.4 1-.5 1.6 1.3-1 1.4 1-.5-1.6m-4.1-5.5l1.4-1 1.3 1-.5-1.6 1.4-1h-1.7l-.5-1.6-.6 1.6h-1.7l1.4 1m-4.3-7.7L40 9.9h-1.7l1.4 1-.5 1.6 1.3-1 1.4 1-.5-1.6 1.4-1h-1.7" fill="#FFED00"/></svg>